<svg width="1618" height="541" viewBox="0 0 1618 541" fill="none" xmlns="http://www.w3.org/2000/svg">
<mask id="mask0_122_5" style="mask-type:luminance" maskUnits="userSpaceOnUse" x="-6" y="-22" width="1633" height="933">
<path d="M1627 -22H-6V910.669H1627V-22Z" fill="white"/>
</mask>
<g mask="url(#mask0_122_5)">
<mask id="mask1_122_5" style="mask-type:luminance" maskUnits="userSpaceOnUse" x="-6" y="-22" width="1633" height="933">
<path d="M1627 -22H-6V910.669H1627V-22Z" fill="white"/>
</mask>
<g mask="url(#mask1_122_5)">
<path fill-rule="evenodd" clip-rule="evenodd" d="M-6 3.81325V910.669H1627V-22H-6V3.81325Z" fill="#000066" fill-opacity="0.2"/>
</g>
<mask id="mask2_122_5" style="mask-type:luminance" maskUnits="userSpaceOnUse" x="-6" y="-22" width="1633" height="933">
<path d="M1627 -22H-6V910.669H1627V-22Z" fill="white"/>
</mask>
<g mask="url(#mask2_122_5)">
<path opacity="0.2" fill-rule="evenodd" clip-rule="evenodd" d="M243.739 910.669L1627 310.411V75.9141L-6 437.799V910.669H243.739Z" fill="#003399" fill-opacity="0.2"/>
</g>
<mask id="mask3_122_5" style="mask-type:luminance" maskUnits="userSpaceOnUse" x="-6" y="-22" width="1633" height="933">
<path d="M1627 -22H-6V910.669H1627V-22Z" fill="white"/>
</mask>
<g mask="url(#mask3_122_5)">
<path opacity="0.2" fill-rule="evenodd" clip-rule="evenodd" d="M675.41 910.669L1627 534.913V190.563L-6 519.864V910.669H675.41Z" fill="#003399" fill-opacity="0.2"/>
</g>
<mask id="mask4_122_5" style="mask-type:luminance" maskUnits="userSpaceOnUse" x="-6" y="-22" width="1633" height="933">
<path d="M1627 -22H-6V910.669H1627V-22Z" fill="white"/>
</mask>
<g mask="url(#mask4_122_5)">
<path opacity="0.2" fill-rule="evenodd" clip-rule="evenodd" d="M353.708 910.669L1627 428.469V136.206L-6 452.023V910.669H353.708Z" fill="#003399" fill-opacity="0.2"/>
</g>
<mask id="mask5_122_5" style="mask-type:luminance" maskUnits="userSpaceOnUse" x="-6" y="-22" width="1633" height="933">
<path d="M1627 -22H-6V910.669H1627V-22Z" fill="white"/>
</mask>
<g mask="url(#mask5_122_5)">
<path opacity="0.2" fill-rule="evenodd" clip-rule="evenodd" d="M-6 655.77L1627 -22H115.782L-6 3.81325M1627 801.423L1058.68 910.669H1627V801.423Z" fill="#003399" fill-opacity="0.2"/>
</g>
<mask id="mask6_122_5" style="mask-type:luminance" maskUnits="userSpaceOnUse" x="-6" y="-22" width="1633" height="933">
<path d="M1627 -22H-6V910.669H1627V-22Z" fill="white"/>
</mask>
<g mask="url(#mask6_122_5)">
<path opacity="0.2" fill-rule="evenodd" clip-rule="evenodd" d="M-6 863.434L1627 111.134V-22H681.674L-6 139.784V863.434Z" fill="#003399" fill-opacity="0.2"/>
</g>
<mask id="mask7_122_5" style="mask-type:luminance" maskUnits="userSpaceOnUse" x="-6" y="-22" width="1633" height="933">
<path d="M1627 -22H-6V910.669H1627V-22Z" fill="white"/>
</mask>
<g mask="url(#mask7_122_5)">
<path opacity="0.2" fill-rule="evenodd" clip-rule="evenodd" d="M868.134 910.668L1627 675.455V427.464L-6 581.997V910.668H868.134Z" fill="#003399" fill-opacity="0.2"/>
</g>
<mask id="mask8_122_5" style="mask-type:luminance" maskUnits="userSpaceOnUse" x="-6" y="-22" width="1633" height="933">
<path d="M1627 -22H-6V910.669H1627V-22Z" fill="white"/>
</mask>
<g mask="url(#mask8_122_5)">
<path opacity="0.2" fill-rule="evenodd" clip-rule="evenodd" d="M1193.47 910.669L1627 800.01V491.809L-6 597.899V910.669H1193.47Z" fill="#003399" fill-opacity="0.2"/>
</g>
<mask id="mask9_122_5" style="mask-type:luminance" maskUnits="userSpaceOnUse" x="-6" y="-22" width="1633" height="933">
<path d="M1627 -22H-6V910.669H1627V-22Z" fill="white"/>
</mask>
<g mask="url(#mask9_122_5)">
<path opacity="0.2" fill-rule="evenodd" clip-rule="evenodd" d="M-6 805.232L1627 329.472V-22L-6 116.007V805.232Z" fill="#003399" fill-opacity="0.2"/>
</g>
<mask id="mask10_122_5" style="mask-type:luminance" maskUnits="userSpaceOnUse" x="-6" y="-22" width="1633" height="933">
<path d="M1627 -22H-6V910.669H1627V-22Z" fill="white"/>
</mask>
<g mask="url(#mask10_122_5)">
<path opacity="0.2" fill-rule="evenodd" clip-rule="evenodd" d="M312.454 910.669L1627 468.83V84.8994L-6 262.735V910.669H312.454Z" fill="#003399" fill-opacity="0.2"/>
</g>
<mask id="mask11_122_5" style="mask-type:luminance" maskUnits="userSpaceOnUse" x="-6" y="-22" width="1633" height="933">
<path d="M1627 -22H-6V910.669H1627V-22Z" fill="white"/>
</mask>
<g mask="url(#mask11_122_5)">
<path opacity="0.1" fill-rule="evenodd" clip-rule="evenodd" d="M660.897 910.67L1627 258.414V108.956L-6 794.957V910.67H660.897Z" fill="#003399" fill-opacity="0.2"/>
</g>
<mask id="mask12_122_5" style="mask-type:luminance" maskUnits="userSpaceOnUse" x="-6" y="-22" width="1633" height="933">
<path d="M1627 -22H-6V910.669H1627V-22Z" fill="white"/>
</mask>
<g mask="url(#mask12_122_5)">
<path opacity="0.1" fill-rule="evenodd" clip-rule="evenodd" d="M1015.44 910.669L1627 527.645V241.179L-6 890.071V910.669H1015.44Z" fill="#003399" fill-opacity="0.2"/>
</g>
<mask id="mask13_122_5" style="mask-type:luminance" maskUnits="userSpaceOnUse" x="-6" y="-22" width="1633" height="933">
<path d="M1627 -22H-6V910.669H1627V-22Z" fill="white"/>
</mask>
<g mask="url(#mask13_122_5)">
<path opacity="0.1" fill-rule="evenodd" clip-rule="evenodd" d="M812.234 910.669L1627 416.625V187.353L-6 820.986V910.669H812.234Z" fill="#003399" fill-opacity="0.2"/>
</g>
<mask id="mask14_122_5" style="mask-type:luminance" maskUnits="userSpaceOnUse" x="-6" y="-22" width="1633" height="933">
<path d="M1627 -22H-6V910.669H1627V-22Z" fill="white"/>
</mask>
<g mask="url(#mask14_122_5)">
<path opacity="0.1" fill-rule="evenodd" clip-rule="evenodd" d="M69.6284 910.669L1501.4 -22H868.018L-6 335.535V910.669H69.6284ZM1627 894.758L1585.85 910.669H1627V894.758Z" fill="#003399" fill-opacity="0.2"/>
</g>
<mask id="mask15_122_5" style="mask-type:luminance" maskUnits="userSpaceOnUse" x="-6" y="-22" width="1633" height="933">
<path d="M1627 -22H-6V910.669H1627V-22Z" fill="white"/>
</mask>
<g mask="url(#mask15_122_5)">
<path opacity="0.1" fill-rule="evenodd" clip-rule="evenodd" d="M370.503 910.669L1627 19.7097V-22H1122.84L-6 469.9V910.669H370.503Z" fill="#003399" fill-opacity="0.2"/>
</g>
<mask id="mask16_122_5" style="mask-type:luminance" maskUnits="userSpaceOnUse" x="-6" y="-22" width="1633" height="933">
<path d="M1627 -22H-6V910.669H1627V-22Z" fill="white"/>
</mask>
<g mask="url(#mask16_122_5)">
<path opacity="0.2" fill-rule="evenodd" clip-rule="evenodd" d="M1377.26 -22L-6 578.259V812.755L1627 450.87V-22H1377.26Z" fill="#9900CC" fill-opacity="0.2"/>
</g>
<mask id="mask17_122_5" style="mask-type:luminance" maskUnits="userSpaceOnUse" x="-6" y="-22" width="1633" height="933">
<path d="M1627 -22H-6V910.669H1627V-22Z" fill="white"/>
</mask>
<g mask="url(#mask17_122_5)">
<path opacity="0.2" fill-rule="evenodd" clip-rule="evenodd" d="M945.59 -22L-6 353.756V698.106L1627 368.806V-22H945.59Z" fill="#9900CC" fill-opacity="0.2"/>
</g>
<mask id="mask18_122_5" style="mask-type:luminance" maskUnits="userSpaceOnUse" x="-6" y="-22" width="1633" height="933">
<path d="M1627 -22H-6V910.669H1627V-22Z" fill="white"/>
</mask>
<g mask="url(#mask18_122_5)">
<path opacity="0.2" fill-rule="evenodd" clip-rule="evenodd" d="M1267.29 -22L-6 460.2V752.463L1627 436.646V-22H1267.29Z" fill="#9900CC" fill-opacity="0.2"/>
</g>
<mask id="mask19_122_5" style="mask-type:luminance" maskUnits="userSpaceOnUse" x="-6" y="-22" width="1633" height="933">
<path d="M1627 -22H-6V910.669H1627V-22Z" fill="white"/>
</mask>
<g mask="url(#mask19_122_5)">
<path opacity="0.2" fill-rule="evenodd" clip-rule="evenodd" d="M1627 232.901L-6 910.669H1505.22L1627 884.856M-6 87.2461L562.321 -22H-6V87.2461Z" fill="#9900CC" fill-opacity="0.2"/>
</g>
<mask id="mask20_122_5" style="mask-type:luminance" maskUnits="userSpaceOnUse" x="-6" y="-22" width="1633" height="933">
<path d="M1627 -22H-6V910.669H1627V-22Z" fill="white"/>
</mask>
<g mask="url(#mask20_122_5)">
<path opacity="0.2" fill-rule="evenodd" clip-rule="evenodd" d="M1627 25.2354L-6 777.535V910.669H939.326L1627 748.885V25.2354Z" fill="#9900CC" fill-opacity="0.2"/>
</g>
<mask id="mask21_122_5" style="mask-type:luminance" maskUnits="userSpaceOnUse" x="-6" y="-22" width="1633" height="933">
<path d="M1627 -22H-6V910.669H1627V-22Z" fill="white"/>
</mask>
<g mask="url(#mask21_122_5)">
<path opacity="0.2" fill-rule="evenodd" clip-rule="evenodd" d="M752.866 -22L-6 213.214V461.205L1627 306.671V-22H752.866Z" fill="#0000FF" fill-opacity="0.2"/>
</g>
<mask id="mask22_122_5" style="mask-type:luminance" maskUnits="userSpaceOnUse" x="-6" y="-22" width="1633" height="933">
<path d="M1627 -22H-6V910.669H1627V-22Z" fill="white"/>
</mask>
<g mask="url(#mask22_122_5)">
<path opacity="0.2" fill-rule="evenodd" clip-rule="evenodd" d="M-6 -22V338.281L1627 217.97V-22H-6Z" fill="#0000FF" fill-opacity="0.2"/>
</g>
<mask id="mask23_122_5" style="mask-type:luminance" maskUnits="userSpaceOnUse" x="-6" y="-22" width="1633" height="933">
<path d="M1627 -22H-6V910.669H1627V-22Z" fill="white"/>
</mask>
<g mask="url(#mask23_122_5)">
<path opacity="0.2" fill-rule="evenodd" clip-rule="evenodd" d="M427.528 -22L-6 88.6588V396.86L1627 290.77V-22H427.528Z" fill="#0000FF" fill-opacity="0.2"/>
</g>
<mask id="mask24_122_5" style="mask-type:luminance" maskUnits="userSpaceOnUse" x="-6" y="-22" width="1633" height="933">
<path d="M1627 -22H-6V910.669H1627V-22Z" fill="white"/>
</mask>
<g mask="url(#mask24_122_5)">
<path opacity="0.2" fill-rule="evenodd" clip-rule="evenodd" d="M1627 83.4385L-6 559.197V910.669L1627 772.662V83.4385Z" fill="#0000FF" fill-opacity="0.2"/>
</g>
<mask id="mask25_122_5" style="mask-type:luminance" maskUnits="userSpaceOnUse" x="-6" y="-22" width="1633" height="933">
<path d="M1627 -22H-6V910.669H1627V-22Z" fill="white"/>
</mask>
<g mask="url(#mask25_122_5)">
<path opacity="0.2" fill-rule="evenodd" clip-rule="evenodd" d="M1308.55 -22L-6 419.839V803.769L1627 625.934V-22H1308.55Z" fill="#0000FF" fill-opacity="0.2"/>
</g>
<mask id="mask26_122_5" style="mask-type:luminance" maskUnits="userSpaceOnUse" x="-6" y="-22" width="1633" height="933">
<path d="M1627 -22H-6V910.669H1627V-22Z" fill="white"/>
</mask>
<g mask="url(#mask26_122_5)">
<path opacity="0.1" fill-rule="evenodd" clip-rule="evenodd" d="M960.103 -22L-6 630.255V779.714L1627 93.713V-22H960.103Z" fill="#00FFFF" fill-opacity="0.2"/>
</g>
<mask id="mask27_122_5" style="mask-type:luminance" maskUnits="userSpaceOnUse" x="-6" y="-22" width="1633" height="933">
<path d="M1627 -22H-6V910.669H1627V-22Z" fill="white"/>
</mask>
<g mask="url(#mask27_122_5)">
<path opacity="0.1" fill-rule="evenodd" clip-rule="evenodd" d="M605.557 -22L-6 361.025V647.491L1627 -1.40201V-22H605.557Z" fill="#00FFFF" fill-opacity="0.2"/>
</g>
<mask id="mask28_122_5" style="mask-type:luminance" maskUnits="userSpaceOnUse" x="-6" y="-22" width="1633" height="933">
<path d="M1627 -22H-6V910.669H1627V-22Z" fill="white"/>
</mask>
<g mask="url(#mask28_122_5)">
<path opacity="0.1" fill-rule="evenodd" clip-rule="evenodd" d="M808.766 -22L-6 472.044V701.318L1627 67.6829V-22H808.766Z" fill="#00FFFF" fill-opacity="0.2"/>
</g>
<mask id="mask29_122_5" style="mask-type:luminance" maskUnits="userSpaceOnUse" x="-6" y="-22" width="1633" height="933">
<path d="M1627 -22H-6V910.669H1627V-22Z" fill="white"/>
</mask>
<g mask="url(#mask29_122_5)">
<path opacity="0.1" fill-rule="evenodd" clip-rule="evenodd" d="M1551.37 -22L119.603 910.669H752.982L1627 553.134V-22H1551.37ZM-6 -6.0882L35.1481 -22H-6V-6.0882Z" fill="#00FFFF" fill-opacity="0.2"/>
</g>
<mask id="mask30_122_5" style="mask-type:luminance" maskUnits="userSpaceOnUse" x="-6" y="-22" width="1633" height="933">
<path d="M1627 -22H-6V910.669H1627V-22Z" fill="white"/>
</mask>
<g mask="url(#mask30_122_5)">
<path opacity="0.1" fill-rule="evenodd" clip-rule="evenodd" d="M1250.5 -22L-6 868.96V910.669H498.162L1627 418.769V-22H1250.5Z" fill="#00FFFF" fill-opacity="0.2"/>
</g>
</g>
</svg>
