<svg width="40" height="44" viewBox="0 0 40 44" fill="none" xmlns="http://www.w3.org/2000/svg">
<path d="M20 22V10M20 22L9.5 28.062M20 22L30.5 28.062M20 10C21.0609 10 22.0783 9.57857 22.8284 8.82843C23.5786 8.07828 24 7.06087 24 6C24 4.93913 23.5786 3.92172 22.8284 3.17157C22.0783 2.42143 21.0609 2 20 2C18.9391 2 17.9217 2.42143 17.1716 3.17157C16.4214 3.92172 16 4.93913 16 6C16 7.06087 16.4214 8.07828 17.1716 8.82843C17.9217 9.57857 18.9391 10 20 10ZM10 14C10 15.0609 9.57857 16.0783 8.82843 16.8284C8.07828 17.5786 7.06087 18 6 18C4.93913 18 3.92172 17.5786 3.17157 16.8284C2.42143 16.0783 2 15.0609 2 14C2 12.9391 2.42143 11.9217 3.17157 11.1716C3.92172 10.4214 4.93913 10 6 10C7.06087 10 8.07828 10.4214 8.82843 11.1716C9.57857 11.9217 10 12.9391 10 14ZM10 30C10 31.0609 9.57857 32.0783 8.82843 32.8284C8.07828 33.5786 7.06087 34 6 34C4.93913 34 3.92172 33.5786 3.17157 32.8284C2.42143 32.0783 2 31.0609 2 30C2 28.9391 2.42143 27.9217 3.17157 27.1716C3.92172 26.4214 4.93913 26 6 26C7.06087 26 8.07828 26.4214 8.82843 27.1716C9.57857 27.9217 10 28.9391 10 30ZM24 38C24 39.0609 23.5786 40.0783 22.8284 40.8284C22.0783 41.5786 21.0609 42 20 42C18.9391 42 17.9217 41.5786 17.1716 40.8284C16.4214 40.0783 16 39.0609 16 38C16 36.9391 16.4214 35.9217 17.1716 35.1716C17.9217 34.4214 18.9391 34 20 34C21.0609 34 22.0783 34.4214 22.8284 35.1716C23.5786 35.9217 24 36.9391 24 38ZM38 30C38 31.0609 37.5786 32.0783 36.8284 32.8284C36.0783 33.5786 35.0609 34 34 34C32.9391 34 31.9217 33.5786 31.1716 32.8284C30.4214 32.0783 30 31.0609 30 30C30 28.9391 30.4214 27.9217 31.1716 27.1716C31.9217 26.4214 32.9391 26 34 26C35.0609 26 36.0783 26.4214 36.8284 27.1716C37.5786 27.9217 38 28.9391 38 30ZM38 14C38 15.0609 37.5786 16.0783 36.8284 16.8284C36.0783 17.5786 35.0609 18 34 18C32.9391 18 31.9217 17.5786 31.1716 16.8284C30.4214 16.0783 30 15.0609 30 14C30 12.9391 30.4214 11.9217 31.1716 11.1716C31.9217 10.4214 32.9391 10 34 10C35.0609 10 36.0783 10.4214 36.8284 11.1716C37.5786 11.9217 38 12.9391 38 14Z" stroke="url(#paint0_linear_631_8)" stroke-width="4" stroke-linecap="round" stroke-linejoin="round"/>
<defs>
<linearGradient id="paint0_linear_631_8" x1="21.9401" y1="2" x2="21.9401" y2="42" gradientUnits="userSpaceOnUse">
<stop stop-color="#585858"/>
<stop offset="1" stop-color="#B1B1B1"/>
</linearGradient>
</defs>
</svg>
