<svg width="48" height="48" viewBox="0 0 48 48" fill="none" xmlns="http://www.w3.org/2000/svg">
<path d="M35.1529 47.0691C34.4977 47.3397 33.7802 47.485 32.9952 47.5H6C5.23652 47.5 4.53137 47.3563 3.87905 47.0727C3.21571 46.7843 2.62562 46.3885 2.10635 45.8837C1.59231 45.3839 1.20148 44.808 0.930881 44.1529C0.660309 43.4978 0.515055 42.7803 0.500002 41.9954C0.50058 41.2337 0.644241 40.5301 0.927285 39.8791C1.21569 39.2157 1.61147 38.6256 2.11631 38.1063C2.61608 37.5923 3.19199 37.2015 3.84713 36.9309C4.50349 36.6598 5.22254 36.5145 6.00926 36.4999L6.5 36.4908V36V6C6.5 5.23652 6.64367 4.53137 6.92729 3.87905C7.21569 3.21571 7.61147 2.62562 8.11631 2.10635C8.61608 1.59231 9.19199 1.20148 9.84713 0.930881C10.5022 0.660299 11.2198 0.515044 12.0047 0.5H42C42.7635 0.5 43.4686 0.643669 44.1209 0.927285C44.7843 1.21569 45.3744 1.61147 45.8937 2.11631C46.4077 2.61608 46.7985 3.19199 47.0691 3.84713C47.3397 4.50222 47.485 5.21976 47.5 6.00471C47.4994 6.76638 47.3557 7.46997 47.0727 8.12095C46.7843 8.78429 46.3885 9.37438 45.8837 9.89365C45.3839 10.4077 44.808 10.7985 44.1529 11.0691C43.4978 11.3397 42.7802 11.485 41.9953 11.5H39H38.5V12V42C38.5 42.7635 38.3563 43.4686 38.0727 44.1209C37.7843 44.7843 37.3885 45.3744 36.8837 45.8937C36.3839 46.4077 35.808 46.7985 35.1529 47.0691ZM27.7969 45.5H28.6549L28.2319 44.7535C27.7426 43.89 27.5 42.9748 27.5 42C27.5 41.0252 27.7426 40.11 28.2319 39.2465L28.6549 38.5H27.7969H6C5.51485 38.5 5.05574 38.5902 4.62876 38.7758C4.21438 38.956 3.84896 39.2017 3.53707 39.5136C3.22549 39.8252 2.97405 40.1961 2.77984 40.6198C2.57716 41.062 2.48294 41.5272 2.50001 42.0095C2.50119 42.4912 2.59141 42.9471 2.77584 43.3712C2.956 43.7856 3.20175 44.151 3.51363 44.4629C3.82521 44.7745 4.19607 45.0259 4.6198 45.2202C5.06191 45.4228 5.527 45.517 6.00918 45.5H27.7969ZM37.2319 3.24651L37.6549 2.5H36.7969H12C11.5148 2.5 11.0557 2.5902 10.6288 2.77584C10.2144 2.956 9.84896 3.20175 9.53707 3.51363C9.22549 3.82521 8.97405 4.19607 8.77984 4.6198C8.5772 5.06192 8.48298 5.52701 8.5 6.00921V36V36.5H9H33C33.2688 36.5 33.4945 36.5923 33.7011 36.7989C33.9077 37.0055 34 37.2312 34 37.5C34 37.7688 33.9077 37.9945 33.7011 38.2011C33.4945 38.4077 33.2688 38.5 33 38.5C32.5479 38.5 32.1057 38.5816 31.676 38.7428C31.2305 38.9099 30.8402 39.1701 30.5089 39.5184C30.1792 39.8494 29.9309 40.2368 29.7662 40.676C29.6074 41.0996 29.5182 41.5349 29.5004 41.98L29.5 41.99V42C29.5 42.4852 29.5902 42.9443 29.7758 43.3712C29.956 43.7856 30.2017 44.151 30.5136 44.4629C30.8252 44.7745 31.1961 45.0259 31.6198 45.2202C32.062 45.4228 32.5272 45.5171 33.0095 45.5C33.4912 45.4988 33.947 45.4086 34.3712 45.2242C34.7856 45.044 35.151 44.7983 35.4629 44.4864C35.7745 44.1748 36.0259 43.8039 36.2202 43.3802C36.4228 42.9381 36.517 42.473 36.5 41.9908V6C36.5 5.02518 36.7426 4.10995 37.2319 3.24651ZM45.2202 7.3802C45.4228 6.93799 45.5171 6.47279 45.5 5.99049C45.4988 5.50885 45.4086 5.05295 45.2242 4.62876C45.044 4.21438 44.7983 3.84896 44.4864 3.53707C44.1748 3.22549 43.8039 2.97405 43.3802 2.77984C42.938 2.57716 42.4728 2.48294 41.9905 2.50001C41.5088 2.50119 41.0529 2.59141 40.6288 2.77584C40.2144 2.956 39.849 3.20175 39.5371 3.51363C39.2255 3.82521 38.9741 4.19607 38.7798 4.6198C38.5772 5.06191 38.483 5.527 38.5 6.00918V9V9.5H39H42C42.4852 9.5 42.9443 9.4098 43.3712 9.22416C43.7856 9.044 44.151 8.79825 44.4629 8.48637C44.7745 8.17479 45.0259 7.80393 45.2202 7.3802ZM12.5 9.5H32.5V11.5H12.5V9.5ZM12.5 15.5H32.5V17.5H12.5V15.5ZM12.5 21.5H32.5V23.5H12.5V21.5ZM12.5 27.5H32.5V29.5H12.5V27.5Z" fill="url(#paint0_linear_631_14)" stroke="url(#paint1_linear_631_14)"/>
<defs>
<linearGradient id="paint0_linear_631_14" x1="0" y1="24" x2="48" y2="24" gradientUnits="userSpaceOnUse">
<stop stop-color="#585858"/>
<stop offset="1" stop-color="#B1B1B1"/>
</linearGradient>
<linearGradient id="paint1_linear_631_14" x1="26.5868" y1="0" x2="26.5868" y2="48" gradientUnits="userSpaceOnUse">
<stop stop-color="#585858"/>
<stop offset="1" stop-color="#B1B1B1"/>
</linearGradient>
</defs>
</svg>
