<svg width="62" height="52" viewBox="0 0 62 52" fill="none" xmlns="http://www.w3.org/2000/svg">
<path d="M28.2501 30.3397V44.3427C28.2501 46.2875 27.5635 47.9406 26.1902 49.302C24.817 50.6634 23.1494 51.3441 21.1876 51.3441H7.06253C5.10072 51.3441 3.43318 50.6634 2.05991 49.302C0.686635 47.9406 0 46.2875 0 44.3427V18.6706C0 16.1423 0.496584 13.7295 1.48975 11.4321C2.48292 9.13474 3.82554 7.14734 5.5176 5.4699C7.20967 3.79246 9.2144 2.46146 11.5318 1.47687C13.8492 0.492291 16.2831 0 18.8334 0H21.1876C21.8252 0 22.3769 0.230951 22.8429 0.692854C23.3088 1.15476 23.5418 1.70175 23.5418 2.33382V7.00147C23.5418 7.63355 23.3088 8.18054 22.8429 8.64244C22.3769 9.10435 21.8252 9.3353 21.1876 9.3353H18.8334C16.234 9.3353 14.0147 10.2469 12.1755 12.0702C10.3363 13.8935 9.41671 16.0937 9.41671 18.6706V19.8375C9.41671 20.8099 9.76003 21.6365 10.4467 22.3172C11.1333 22.9979 11.9671 23.3382 12.948 23.3382H21.1876C23.1494 23.3382 24.817 24.0189 26.1902 25.3803C27.5635 26.7417 28.2501 28.3949 28.2501 30.3397ZM61.2086 30.3397V44.3427C61.2086 46.2875 60.522 47.9406 59.1487 49.302C57.7754 50.6634 56.1079 51.3441 54.1461 51.3441H40.021C38.0592 51.3441 36.3917 50.6634 35.0184 49.302C33.6451 47.9406 32.9585 46.2875 32.9585 44.3427V18.6706C32.9585 16.1423 33.4551 13.7295 34.4482 11.4321C35.4414 9.13474 36.784 7.14734 38.4761 5.4699C40.1681 3.79246 42.1729 2.46146 44.4903 1.47687C46.8077 0.492291 49.2415 0 51.7919 0H54.1461C54.7837 0 55.3354 0.230951 55.8014 0.692854C56.2673 1.15476 56.5003 1.70175 56.5003 2.33382V7.00147C56.5003 7.63355 56.2673 8.18054 55.8014 8.64244C55.3354 9.10435 54.7837 9.3353 54.1461 9.3353H51.7919C49.1925 9.3353 46.9732 10.2469 45.134 12.0702C43.2948 13.8935 42.3752 16.0937 42.3752 18.6706V19.8375C42.3752 20.8099 42.7185 21.6365 43.4051 22.3172C44.0918 22.9979 44.9255 23.3382 45.9065 23.3382H54.1461C56.1079 23.3382 57.7754 24.0189 59.1487 25.3803C60.522 26.7417 61.2086 28.3949 61.2086 30.3397Z" fill="#FCFCFC"/>
</svg>
